<?xml version="1.0" encoding="UTF-8" standalone="no"?><!DOCTYPE svg PUBLIC "-//W3C//DTD SVG 1.1//EN" "http://www.w3.org/Graphics/SVG/1.1/DTD/svg11.dtd"><svg width="100%" height="100%" viewBox="0 0 3000 3000" version="1.1" xmlns="http://www.w3.org/2000/svg" xmlns:xlink="http://www.w3.org/1999/xlink" xml:space="preserve" xmlns:serif="http://www.serif.com/" style="fill-rule:evenodd;clip-rule:evenodd;stroke-linejoin:round;stroke-miterlimit:2;"><g id="Drawn-CIZA-s-Palace-.png" serif:id="Drawn CIZA&apos;s Palace .png"><path d="M496.168,1223.516c-24.981,-12.355 -26.528,-7.044 -53.116,-15.156c-5.688,-1.735 -5.815,-0.934 -72.35,-17.078c-4.831,-1.172 -5.192,0.706 -60.838,-12.643c-10.186,-2.443 -60.701,-20.744 -24.842,0.444c17.309,10.227 135.295,91.651 219.035,143.72c10.443,8.904 20.61,12.616 44.168,28.359c4.578,3.559 12.137,9.436 61.142,38.927c51.527,31.01 55.6,21.172 466.386,178.912c3.678,1.412 3.554,1.004 7.224,2.041c10.904,4.181 25.469,9.765 111.89,93.755c11.123,10.81 -5.658,8.332 -94.378,7.77c-6.158,-0.039 -6.043,-0.07 -270.167,-5.318c-70.843,-1.407 -89.595,6.993 -183.336,-39.886c-190.93,-95.483 -231.79,-98.507 -290.614,-182.557c-7.948,-11.356 -49.75,-71.084 -102.173,-139.935c-39.09,-51.339 -154.616,-215.757 -163.672,-226.034c-13.853,-15.72 25.584,-0.251 71.221,9.677c134.263,29.208 287.302,67.818 312.191,74.097c64.586,16.294 57.874,29.063 127.299,87.398c20.794,17.473 -9.41,4.049 -10.203,3.696c-7.278,-3.235 -28.505,-12.669 -94.865,-30.19Z" style="fill:#fff;fill-opacity:1;"/><path d="M2585.268,1205.713c-11.578,1.456 -11.456,1.428 -22.388,5.526l-3.091,1.407c-8.898,2.311 -8.665,1.865 -17.625,4.871c-6.667,-0.925 -6.359,-0.173 -12.865,1.397c-64.3,15.517 -108.086,36.115 -117.048,40.331c-20.736,9.755 10.619,-14.297 39.641,-42.461c67.332,-65.342 88.496,-51.661 369.808,-120.609c100.141,-24.544 105.699,-30.795 106.009,-22.137c0.129,3.589 -28.515,40.851 -31.154,44.286c-5.58,7.259 -73.553,102.531 -74.498,103.623c-24.644,28.499 -172.127,248.994 -212.692,280.287c-3.014,2.485 -2.874,2.357 -5.43,5.17c-16.888,13.71 -267.441,144.72 -328.095,157.125c-14.281,2.921 -401.418,8.836 -448.48,8.867c-16.581,0.011 4.754,-14.506 55.457,-62.128c55.592,-52.214 63.034,-41.037 340.238,-146.879c9.518,-3.732 72.788,-28.542 119.593,-45.054c32.821,-11.579 35.66,-7.192 284.388,-172.213c94.852,-61.912 94.239,-62.314 102.53,-67.584c0.763,-0.485 25.292,-16.077 6.301,-9.381c-13.23,4.664 -81.373,20.852 -83.971,21.116c-32.685,3.325 -31.232,8.9 -63.878,14.423l-2.752,0.018Z" style="fill:#fff;fill-opacity:1;"/><path d="M1374.202,1432.693c-6.191,-6.244 -5.928,-6.377 -68.432,-79.411c-13.436,-15.699 -5.049,-18.693 32.781,-80.437c0.841,-1.373 124.568,-188.56 127.561,-192.674c37.552,-51.624 40.836,-74.154 51.694,-53.086c3.185,6.181 167.435,252.211 180.228,273.282c20.325,33.477 30.256,37.014 12.136,57.545c-89.207,101.078 -87.507,102.256 -95.6,110.709c-101.718,106.252 -96.934,119.447 -108.095,113.704c-4.49,-2.31 -124.625,-140.192 -132.274,-149.633Z" style="fill:#fff;fill-opacity:1;"/><path d="M938.935,1269.028c3.121,7.109 7.964,11.344 0.006,11.113c-54.059,-1.569 -56.405,-2.816 -60.526,-14.179c-5.77,-15.908 -8.052,-14.822 -75.477,-197.605c-13.963,-37.852 -38.325,-111.302 -49.831,-139.454c-11.068,-27.081 -10.485,-28.121 -8.517,-29.605c3.158,-2.381 3.359,0.301 69.614,42.969c148.019,95.324 397.796,260.58 403.685,264.826c59.51,42.909 82.19,40.679 64.253,65.139c-15.838,21.597 -32.319,62.079 -42.446,63.36c-10.013,1.266 -69.453,8.783 -125.44,13.513c-45.317,4.162 -143.277,19.984 -164.084,17.929c-1.476,0.188 -1.243,-0.175 -2.67,0.007c-2.913,0.372 -0.552,1.54 -0.725,2.025c0.087,0.894 -1.463,1.422 -1.377,2.316c0.089,0.917 24.499,9.313 26.654,10.055c59.794,36.331 317.068,109.005 387.243,113.976c26.987,6.64 24.867,14.779 62.615,57.279c10.412,11.723 -34.89,0.898 -104.098,-11.173c-252.674,-44.07 -496.41,-168.779 -512.313,-178.236c-10.888,-6.475 -40.473,-18.362 -22.573,-21.983c52.353,-10.59 161.437,-25.732 175.517,-27.686c158.733,-22.033 273.575,-26.747 273.549,-33.408c-0.017,-4.273 -123.397,-82.668 -179.652,-121.521c-50.829,-35.106 -129.457,-84.084 -205.828,-136.489c-7.976,-5.473 -1.713,11.617 -1.365,12.566c31.271,85.337 53.601,156.565 93.787,234.265Z" style="fill:#fff;fill-opacity:1;"/><path d="M2081.382,1266.5c45.591,-84.093 80.907,-204.75 96.144,-240.004c6.319,-14.62 -17.698,4.929 -38.914,18.511c-15.082,9.655 -297.07,197.602 -322.887,214.808c-14.631,9.752 -35.079,21.877 -24.536,23.197c166.575,20.846 174.883,10.786 406.819,52.017c18.398,3.271 65.681,3.775 33.845,18.567c-10.161,4.721 -245.865,138.72 -526.937,188.585c-31.888,5.657 -103.859,17.289 -106.001,16.803c-5.135,-1.165 -5.638,-6.717 39.829,-52.399c19.628,-19.721 41.552,-4.927 191.139,-46.515c18.059,-5.021 181.295,-50.403 220.417,-79.461c22.917,-8.416 23.893,-6.921 24.572,-8.899c2.511,-7.314 -4.399,-2.693 -97.01,-13.977c-90.544,-11.032 -90.69,-7.914 -180.901,-20.172c-23.49,-3.192 -24.961,-4.401 -34.93,-25.993c-6.008,-13.013 -36.468,-50.235 -28.319,-58.26c9.86,-9.71 119.826,-79.896 130.382,-86.633c17.441,-11.132 351.317,-232.503 383.403,-252.061c4.507,-2.748 18.804,-14.037 20.405,-15.302c16.285,-12.86 -2.754,28.377 -8.133,44.072c-54.967,160.417 -101.746,280.793 -113.489,306.759c-8.402,18.578 -3.076,27.053 -23.59,27.909c-39.102,1.632 -50.986,3.69 -43.403,-8.467c0.158,-0.253 0,-0 2.094,-3.085Z" style="fill:#fff;fill-opacity:1;"/><path d="M2047.65,1584.238c10.845,-4.083 214.014,-81.521 300.4,-112.45c36.62,-13.111 48.124,-15.382 154.101,-84.726c164.341,-107.533 163.269,-108.703 177.819,-117.601c40.246,-24.612 97.543,-68.953 73.795,-42.86c-23.112,25.395 -84.952,114.422 -99.464,134.091c-71.517,96.93 -70.594,101.369 -178.489,155.069c-193.047,96.079 -194.881,95.259 -244.519,96.466c-16.489,0.401 -171.072,4.159 -206.136,4.102c-50.106,-0.082 -83.068,3.915 -57.89,-3.742c40.983,-12.464 40.33,-13.363 80.383,-28.347Z" style="fill:#fff;"/><path d="M813.538,1612.582c-63.84,-1.636 -81.661,-4.828 -135.354,-29.88c-20.622,-9.622 -46.537,-22.468 -82.383,-39.689c-143.84,-69.104 -158.199,-84.855 -168.668,-96.339c-51.029,-55.978 -72.254,-104.725 -167.24,-222.425c-19.311,-23.929 11.848,8.781 323.396,207.737c50.873,32.488 151.662,62.439 425.025,166.445c41.952,15.961 57.237,17.663 44.71,20.909c-3.162,0.819 -2.914,-2.342 -116.877,-3.992c-9.81,-0.142 -9.616,-0.622 -122.609,-2.767Z" style="fill:#fff;"/><path d="M1646.036,1313.815c11.406,18.47 16.656,21.374 2.075,37.813c-93.475,105.386 -92.223,106.315 -133.064,153.764c-7.939,9.224 -17.545,-8.707 -56.465,-54.344c-84.633,-99.239 -100.569,-109.981 -96.727,-118.145c0.342,-0.727 143.176,-226.289 148.114,-226.081c3.963,0.166 74.046,113.602 136.068,206.994Z" style="fill:#fff;"/><path d="M1623.54,1297.256c25.355,37.565 24.933,39.411 21.635,43.236c-10.722,12.433 -133.044,154.272 -135.256,154.348c-4.932,0.168 -43.108,-52.215 -118.509,-135.138c-7.933,-8.725 -22.042,-21.337 -17.206,-28.953c10.514,-16.559 127.796,-201.262 133.574,-205.604c3.933,-2.956 4.782,1.014 115.762,172.111Z" style="fill:#fff;"/><path d="M1267.15,1592.704c3.42,3.532 3.137,3.46 6.752,6.973c115.305,112.049 115.447,111.433 227.902,226.141c12.048,12.29 13.615,2.378 25.578,-10.143c88.146,-92.257 216.803,-212.774 233.028,-229.317c25.592,-26.094 30.011,-19.008 100.363,-36.661c20.92,-5.249 -19.642,29.92 -24.434,34.664c-324.206,321.002 -324.942,324.706 -328.953,321.923c-2.766,-1.92 -108.007,-107.619 -108.645,-108.295c-52.21,-55.271 -54.885,-52.314 -107.553,-106.936c-115.715,-120.009 -154.555,-147.142 -132.223,-141.382c65.157,16.806 75.846,6.989 108.185,43.031Z" style="fill:#fff;fill-opacity:1;"/><path d="M1275.699,1586.07c102.422,8.611 196.672,37.745 259.15,29.963c131.748,-16.411 224.917,-39.513 206.579,-23.697c-0.582,0.502 -1.055,1.121 -1.637,1.623c-2.821,2.737 -9.257,8.336 -10.074,9.047c-216.391,202.527 -213.128,224.464 -225.187,211.735c-186.68,-197.056 -206.235,-196.975 -228.83,-228.67Z" style="fill:#fff;fill-opacity:1;"/><path d="M649.06,1083.084c-91.016,-11.983 -104.896,-24.111 -105.136,-17.348c-0.025,0.699 57.813,57.55 79.517,75.786c20.343,17.401 18.473,19.132 39.308,36.19c14.019,17.106 53.637,48.99 58.557,52.949c20.4,18.968 46.466,37.825 50.687,40.879c12.821,8.736 13.162,7.823 26.631,15.47c16.673,9.467 -28.574,14.893 -46.395,17.471c-25.971,3.757 -25.372,-2.569 -52.908,-26.991c-16.517,-14.648 -115.77,-102.675 -202.753,-187.198c-81.009,-78.718 -105.067,-95.538 -102.578,-99.016c2.095,-2.927 280.921,46.208 339.009,59.605c19.475,4.491 17.833,8.625 33.958,45.438c-18.3,5.208 -57.032,0.408 -61.95,-0.202c-34.242,-7.532 -33.46,-10.423 -55.948,-13.035Z" style="fill:#fff;fill-opacity:1;"/><path d="M2358.53,1083.956c-6.887,0.679 -6.503,1.033 -13.008,3.175c-2.824,1.053 -5.648,2.107 -8.471,3.16c-50.762,11.746 -65.29,5.632 -86.94,8.767c1.333,-3.329 14.86,-37.099 18.263,-40.937c11.904,-13.421 287.518,-55.035 347.295,-67.908c13.383,-2.882 -2.061,10.864 -2.767,11.493c-40.57,36.109 -37.982,38.565 -78.29,74.858c-42.796,38.533 -217.201,204.131 -243.916,224.365c-15.122,11.453 -73.453,-4.957 -72.969,-9.573c0.067,-0.643 55.03,-39.907 88.768,-69.658c58.64,-51.71 57.082,-52.98 62.402,-57.167c8.916,-7.018 16.705,-13.149 103.814,-96.634c10.272,-9.845 -42.253,6.364 -106.102,15.966c-4.062,-0.557 -3.887,-0.619 -8.08,0.094Z" style="fill:#fff;fill-opacity:1;"/><path d="M945.647,1262.798c-4.399,-9.157 -27.861,-57.997 -49.937,-116.751c-0.653,-1.738 -36.768,-97.401 -36.635,-99.574c0.209,-3.393 2.991,-2.13 37.363,20.232c15.902,10.346 164.421,106.972 197.759,130.881c100.567,72.124 103.621,67.533 111.871,74.424c5.016,4.19 -1.372,6.93 -80.488,14.002c-81.444,7.28 -88.067,16.673 -139.051,1.937c-38.835,-11.225 -36.016,-16.619 -40.882,-25.15Z" style="fill:#fff;fill-opacity:1;"/><path d="M2074.278,1260.149c-11.683,22.14 -14.861,20.533 -57.139,32.288c-32.827,9.127 -132.586,-9.132 -200.69,-15.608c-13.933,-1.325 2.526,-8.056 142.768,-101.111c192.133,-127.487 202.77,-137.747 199.706,-126.724c-19.403,69.797 -77.018,194.63 -84.645,211.154Z" style="fill:#fff;fill-opacity:1;"/><path d="M1125.703,1356.536c105.594,-9.474 111.775,-20.039 122.696,-1.345c29.394,50.316 103.638,123.911 107.737,128.598c-14.324,5.377 -204.894,-39.833 -313.761,-82.195c-33.787,-13.147 -37.145,-16.868 -65.605,-24.468c6.711,-6.026 7.801,-4.191 148.933,-20.59Z" style="fill:#fff;fill-opacity:1;"/><path d="M1081.443,1561.196c-1.768,-0.471 -14.029,-0.973 -47.434,-19.831c-162.286,-91.614 -263.233,-102.317 -334.554,-169.325c-8.976,-8.433 8.615,-10.821 10.971,-11.589c16.386,-5.343 13.207,7.133 25.979,16.128c81.992,57.751 303.772,116.887 345.039,184.617Z" style="fill:#fff;fill-opacity:1;"/><path d="M2259.08,1413.784c-99.377,48.479 -160.14,69.929 -211.175,92.989c-21.356,9.65 -127.718,74.95 -108.146,49.7c13.708,-17.684 52.768,-41.775 57.747,-44.846c20.239,-12.483 21.436,-9.649 41.855,-21.982c22.673,-13.695 215.377,-84.664 246.593,-118.529c8.988,-9.751 9.865,-18.246 31.073,-6.592c13.911,7.645 -52.682,46.211 -57.947,49.26Z" style="fill:#fff;fill-opacity:1;"/><path d="M2020.124,1606.321c106.8,-33.775 154.486,-12.556 302.836,-114.81c7.273,-5.013 61.171,-27.568 48.591,-16.056c-104.207,95.356 -227.867,131.085 -304.599,132.556c-40.93,0.785 -41.138,1.566 -46.827,-1.689Z" style="fill:#fff;"/><path d="M999.61,1606.435c-8.434,5.025 -78.295,1.61 -96.927,-2.946c-160.149,-39.16 -205.019,-84.876 -258.074,-126.415c-19.534,-15.294 35.434,4.978 57.345,20.686c129.569,92.888 274.077,93.702 297.656,108.675Z" style="fill:#fff;"/><path d="M811.113,1602.892c-0.067,0.039 -1.394,3.676 -5.812,3.359c-39.963,-2.864 -40.081,-2.046 -50.285,-5.506c-117.674,-39.906 -208.535,-174.201 -214.024,-181.446c-10.532,-13.903 35.77,15.189 44.205,25.216c85.031,101.078 120.086,118.866 225.916,158.378Z" style="fill:#fff;"/><path d="M2356.363,1547.226c-86.793,62.605 -106.718,57.024 -141.84,59.008c-23.286,1.315 4.458,-6.701 5.118,-6.891c81.169,-23.451 147.961,-86.662 158.769,-96.89c45.412,-42.976 35.855,-53.55 89.649,-85.66c10.958,-6.541 -4.051,13.378 -4.779,14.344c-31.369,41.631 -47.425,67.682 -106.917,116.089Z" style="fill:#fff;"/><path d="M649.06,1083.084c22.488,2.612 21.706,5.502 55.948,13.035c-2.482,4.069 -2.984,3.74 -3.236,8.55c-3.403,-1.424 -6.788,-5.171 -21.669,0.494c-42.814,16.298 -57.866,22.03 -53.12,29.875c-1.181,2.162 -2.361,4.324 -3.542,6.486c-21.704,-18.236 -79.542,-75.087 -79.517,-75.786c0.241,-6.764 14.121,5.365 105.136,17.348Z" style="fill:#fff;fill-opacity:1;"/><path d="M2403.9,1539.157c3.931,-3.55 26.02,-22.309 54.479,-59.47c57.847,-75.536 45.918,-86.506 82.521,-109.334c18.512,-11.545 -16.89,50.194 -32.343,73.329c-57.602,86.237 -70.341,82.054 -101.893,98.786l-2.764,-3.31Z" style="fill:#fff;"/><path d="M487.043,1411.467c-21.911,-40.003 -23.535,-42.764 -19.758,-43.173c16.99,-1.84 34.26,28.83 36.161,32.206c69.146,122.797 144.271,161.234 104.113,141.122c-42.047,-21.059 -62.582,-31.814 -120.516,-130.155Z" style="fill:#fff;"/><path d="M976.77,1377.126c28.46,7.6 31.818,11.32 65.605,24.468c108.867,42.362 299.437,87.572 313.761,82.195c2.945,5.393 2.959,5.304 3.16,11.624c-70.175,-4.971 -327.449,-77.645 -387.243,-113.976c1.572,-1.437 3.145,-2.874 4.717,-4.311Z" style="fill:#fff;fill-opacity:1;"/><path d="M2364.927,1339.418c8.314,3.808 49.618,28.906 50.606,32.474c0.93,3.356 -11.722,17.602 -22.937,8.866c-20.323,-15.832 -25.017,-19.878 -31.2,-15.216c-9.017,9.519 -6.691,12.273 3.516,20.53c19.988,16.168 -2.685,14.886 -4.864,12.938c-12.786,-11.43 -14.858,-17.492 -27.655,-6.397c-33.604,29.134 -33.19,29.844 -73.814,48.039c-32.626,14.613 13.625,-15.396 61.851,-60.191c13.966,-12.973 12.817,-13.755 27.959,-24.97c8.596,-7.803 9.037,-7.044 16.538,-16.071Z" style="fill:#fff;fill-opacity:1;"/><path d="M652.135,1340.014c13.386,15.719 56.428,52.413 61.524,56.757c14.392,12.269 83.155,61.729 35.504,37.48c-38.879,-19.785 -38.431,-20.182 -72.243,-47.966c-8.462,-6.954 -23.766,20.502 -33.325,10.978c-3.018,-3.007 13.486,-17.259 14.925,-18.502c8.002,-6.91 -4.776,-21.151 -14.298,-14.285c-12.466,8.988 -24.884,25.255 -42.2,10.334c-6.852,-5.905 38.066,-31.048 50.112,-34.795Z" style="fill:#fff;fill-opacity:1;"/><path d="M467.865,1467.104c-9.328,-12.988 -9.025,-12.887 -17.801,-26.32c-34.242,-52.414 -48.034,-116.654 -40.35,-112.727c30.663,15.672 19.129,27.082 39.522,68.849c22.662,46.413 25.339,44.599 54.716,86.794c6.925,9.947 -25.415,-6.03 -36.086,-16.596Z" style="fill:#fff;"/><path d="M2548.393,1466.472c-10.742,11.439 -42.534,26.253 -38.298,19.867c12.587,-18.979 32.183,-36.7 62.299,-105.322c9.301,-21.193 6.752,-40.946 32.232,-52.864c8.624,-4.034 -7.366,67.603 -56.233,138.32Z" style="fill:#fff;"/><path d="M2390.472,1275.369c9.316,-4.623 13.169,-9.408 24.759,-3.824c81.528,39.282 82.727,37.204 88.59,42.436c1.364,1.218 4.43,5.067 -16.652,15.657c-5.573,2.799 -6.785,3.408 -71.649,-30.735c-22.906,-12.057 -45.875,-13.437 -25.048,-23.534Z" style="fill:#fff;fill-opacity:0.99;"/><path d="M510.737,1316.449c0.727,-0.683 0.597,-2.618 5.241,-4.925c7.046,-3.501 70.232,-34.899 88.854,-42.162c8.548,-3.334 26.804,8.223 26.706,13.259c-0.052,2.624 -94.205,46.751 -96.454,47.65c-3.208,1.283 -22.525,-12.52 -24.347,-13.822Z" style="fill:#fff;fill-opacity:1;"/><path d="M679.899,1528.074c-34.559,-28.622 -34.56,-28.607 -35.071,-29.071c-26.181,-23.747 -48.898,-54.223 -29.772,-39.196c62.587,49.174 71.634,88.55 248.085,141.941c10.396,3.146 -2.232,7.665 -22.03,2.872c-75.575,-18.296 -149.407,-68.516 -161.212,-76.546Z" style="fill:#fff;"/><path d="M2153.513,1603.452c205.731,-63.033 223.09,-139.432 253.175,-147.464c12.281,-3.279 -42.289,51.268 -73.205,73.763c-74.909,54.506 -172.033,86.608 -179.97,73.701Z" style="fill:#fff;"/><path d="M769.058,1104.687c4.699,10.367 8.385,11.322 3.817,14.824c-1.873,1.436 -14.716,2.05 -20.333,3.009c-52.227,8.91 -50.847,12.921 -100.501,32.2c-1.749,0.679 -27.24,-9.427 -7.686,-18.152c85.064,-37.954 122.159,-31.796 124.703,-31.881Z" style="fill:#fff;fill-opacity:1;"/><path d="M2248.211,1104.872c45.23,-3.439 105.109,24.308 125.35,32.742c15.481,6.45 -4.112,19.383 -10.92,16.183c-29.605,-13.918 -62.776,-27.217 -116.931,-33.575c-1.036,-0.544 -2.072,-1.087 -3.109,-1.631c2.538,-7.04 2.488,-6.852 5.609,-13.719Z" style="fill:#fff;fill-opacity:1;"/><path d="M557.858,1344.607c0.592,-0.403 66.355,-38.452 72.127,-41.791c21.303,-12.325 24.176,-6.959 40.233,11.897c8.774,10.304 -4.606,13.979 -11.906,9.241c-17.258,-11.199 -18.155,-2.205 -36.242,7.52c-43.06,23.153 -43.653,28.614 -52.708,22.687c-5.103,-3.341 -4.658,-3.46 -11.504,-9.554Z" style="fill:#fff;fill-opacity:1;"/><path d="M2393.436,1331.752c-19.407,-9.092 -20.555,-19.416 -34.566,-7.637c-6.246,5.251 -24.331,1.319 -10.527,-13.237c14.887,-15.698 17.913,-17.488 36.497,-6.37c46.555,27.854 78.745,39.118 71.583,44.907c-13.656,11.037 -15.706,9.881 -30.61,1.109c-21.933,-12.909 -29.765,-17.307 -32.376,-18.773Z" style="fill:#fff;fill-opacity:0.99;"/><path d="M671.697,1171.65c8.707,-3.374 106.778,-41.374 112.877,-29.711c0.614,1.174 7.977,15.254 1.646,16.481c-50.205,9.728 -49.759,10.709 -97.58,28.294c-4.348,1.599 -4.457,0.868 -7.975,-2.125c-7.882,-6.706 -7.986,-6.822 -8.968,-12.938Z" style="fill:#fff;fill-opacity:1;"/><path d="M2228.654,1157.535c1.51,-28.069 14.513,-18.245 41.769,-11.625c5.879,1.428 31.385,7.623 71.793,23.777c8.753,3.499 -2.265,22.48 -18.619,14.793c-28.889,-13.58 -76.242,-24.658 -94.944,-26.944Z" style="fill:#fff;fill-opacity:1;"/><path d="M2217.038,1530.016c15.388,-6.19 68.463,-27.095 69.967,-27.125c4.511,-0.093 1.632,5.595 -47.759,29.996c-66.2,32.705 -178.338,59.047 -155.19,45.709c9.814,-5.655 10.68,-3.424 132.983,-48.579Z" style="fill:#fff;"/><path d="M799.957,1530.045c124.592,46.021 152.272,55.261 131.363,52.093c-109.061,-16.525 -280.982,-111.687 -179.12,-70.417c3.793,1.537 3.897,1.149 47.757,18.324Z" style="fill:#fff;"/><path d="M2253.973,1425.48c-24.937,32.511 -36.716,32.008 -36.948,32.103c-27.309,10.007 -298.415,111.689 -150.815,49.74c15.109,-6.341 181.172,-76.039 187.763,-81.843Z" style="fill:#fff;fill-opacity:1;"/><path d="M813.858,1449.56c139.054,60.971 173.658,66.24 160.917,72.182c-0.53,0.247 -160.724,-59.258 -174.688,-64.445c-18.709,-6.95 -16.629,-10.031 -30.656,-24.178c-11.388,-11.486 7.672,-0.525 44.427,16.441Z" style="fill:#fff;"/><path d="M2387.305,1544.822c-1.575,1.164 -109.956,72.391 -23.424,7.135c77.69,-58.588 139.498,-174.377 135.213,-146.452c-0.481,3.133 -39.586,62.13 -65.378,91.068c-25.729,28.868 -42.503,44.587 -46.411,48.249Z" style="fill:#fff;"/><path d="M2217.707,1182.847c3.184,-4.871 4.561,-6.315 19.162,-3.092c27.749,6.126 60.923,18.494 71.676,23.307c6.733,3.014 -9.8,17.251 -15.901,15.339c-37.706,-11.821 -36.889,-13.954 -75.613,-21.132c-4.116,-0.763 0.293,-13.331 0.675,-14.421Z" style="fill:#fff;fill-opacity:1;"/><path d="M632.312,1547.862c-6.398,-5.826 -44.951,-40.932 -73.661,-79.198c-20.511,-27.338 -43.283,-59.958 -43.327,-63.207c-0.197,-14.585 28.978,31.668 50.36,58.566c61.674,77.584 87.207,86.71 105.651,100.44c11.882,8.845 -7.192,6.592 -39.023,-16.601Z" style="fill:#fff;"/><path d="M706.067,1205.075c22.785,-11.796 62.718,-21.811 68.317,-23.216c17.683,-4.435 22.888,-8.23 28.87,9.014c2.677,7.718 -14.406,7.345 -26.037,10.405c-51.794,13.629 -59.31,25.941 -71.15,3.796Z" style="fill:#fff;fill-opacity:1;"/><path d="M570.29,1254.905c-81.777,43.562 -87.155,53.002 -88.981,42.312c-3.4,-19.909 31.583,-34.257 43.268,-40.98c0.053,-0.031 25.621,-21.145 45.713,-1.332Z" style="fill:#fff;fill-opacity:1;"/><path d="M2534.362,1299.182c-12.835,7.015 -24.546,-14.301 -83.69,-40.243c-1.88,-0.825 -13.138,-3.342 -1.396,-8.314c13.354,-5.655 18.093,-9.312 73.718,24.996c10.487,6.468 11.261,21.472 11.369,23.562Z" style="fill:#fff;fill-opacity:1;"/><path d="M409.665,1411.136c-11.582,-16.152 -11.708,-15.925 -12.509,-17.444c-6.088,-11.549 -13.585,-79.505 -4.224,-74.286c4.751,2.649 16.045,74.481 42.689,113.516c50.094,73.393 -24.264,-19.669 -25.956,-21.786Z" style="fill:#fff;"/><path d="M488.489,1449.571c-4.237,-7.006 -43.951,-72.68 -45.766,-91.54c-2.32,-24.108 34.745,53.56 38.169,59.309c47.422,79.625 53.274,75.614 56.667,82.896c2.383,5.115 -9.369,7.172 -49.07,-50.665Z" style="fill:#fff;"/><path d="M2495.49,1491.501c-0.688,0.564 -31.924,26.157 -11.125,0.102c67.618,-84.705 78.894,-150.118 87.822,-137.245c1.426,2.057 -7.684,28.969 -27.391,64.349c-18.527,33.262 -44.985,67.243 -49.307,72.793Z" style="fill:#fff;"/><path d="M2607.196,1408.217c-2.488,3.015 -55.804,67.615 -35.164,33.926c33.777,-55.132 33.491,-60.437 44.689,-117.076c1.167,-5.904 7.539,-8.072 7.538,-0.389c-0.001,4.456 -0.004,29.896 -4.173,55.549c-3.302,20.316 -7.706,20.492 -12.889,27.991Z" style="fill:#fff;"/><path d="M1114.255,1349.105c0.462,0.268 5.779,3.35 5.779,3.35c5.3,-0.423 5.431,3.909 5.669,4.08c-141.132,16.399 -142.222,14.565 -148.933,20.59c-1.572,1.437 -3.145,2.874 -4.717,4.311c-2.155,-0.741 -26.565,-9.138 -26.654,-10.055c-0.087,-0.894 1.463,-1.422 1.377,-2.316c1.132,-0.677 2.264,-1.355 3.395,-2.032c20.807,2.055 118.767,-13.767 164.084,-17.929Z" style="fill:#fff;fill-opacity:0.13;"/><path d="M815.205,1222.141c3.974,15.855 -5.793,10.99 -21.184,15.961c-25.184,8.135 -34.873,15.852 -49.165,2.301c-4.205,-3.987 -3.953,-6.035 1.748,-7.954c32.054,-10.793 32.33,-10.227 38.785,-12.019c16.581,-4.604 20.375,-12.878 29.817,1.711Z" style="fill:#fff;fill-opacity:1;"/><path d="M2541.043,1223.868c1.609,4.665 18.976,55.024 16.969,59.307c-1.127,2.405 -13.602,9.852 -14.856,10.6c-0.649,-0.679 -2.096,1.324 -2.745,0.645c-0.797,-0.833 -8.829,-33.335 -9.548,-36.246c-2.342,-9.476 -7.939,-26.319 -7.426,-28.198c0.941,-3.444 16.134,-5.873 17.606,-6.108Z" style="fill:#fff;fill-opacity:1;"/><path d="M2275.865,1235.595c-7.205,8.308 -7.309,7.89 -16.752,13.32c-51.692,-16.675 -52.013,-14.236 -56.088,-15.6c-5.171,-1.73 -0.121,-19.91 8.839,-18.064c43.245,8.908 59.296,17.751 64.001,20.343Z" style="fill:#fff;fill-opacity:1;"/><path d="M473.423,1224.126l2.812,-0.706c10.634,2.085 9.875,3.285 15.733,6.422c-16.092,48.658 -14.226,65.679 -20.587,62.948c-24.063,-10.329 -13.204,-18.128 -6.459,-43.386c5.511,-20.639 6.298,-20.153 8.501,-25.278Z" style="fill:#fff;"/><path d="M379.943,1376.409c-21.296,-33.269 -21.682,-34.453 -19.005,-73.869c0.709,-10.438 20.076,5.554 20.275,11.088c0.08,2.225 -1.252,2.1 -0.344,27.829c1.014,28.725 10.211,51.022 -0.926,34.953Z" style="fill:#fff;"/><path d="M2651.282,1344.22c-0.242,2.935 -1.182,14.363 -16.79,32.755c-0.287,0.339 -5.98,7.047 -5.485,0.872c2.594,-32.321 2.069,-32.017 2.897,-64.312c0.117,-4.548 19.097,-20.467 19.181,-10.982c0.186,20.993 -0.029,20.659 0.197,41.666Z" style="fill:#fff;"/><path d="M2343.35,1093.721c21.675,-7.557 30.999,-5.669 62.9,11.816c11.175,6.126 7.922,10.672 -2.738,17.702c-5.247,3.46 -57.742,-24.588 -62.553,-27.159l2.391,-2.359Z" style="fill:#fff;"/><path d="M652.471,1088.572c8.28,2.297 31.246,5.673 15.733,12.002c-4.305,1.756 -8.706,3.27 -13.016,5.015c-32.499,13.155 -35.502,25.517 -49.731,9.757c-2.573,-2.85 -5.057,-10.13 40.637,-25.533c4.049,-1.365 5.133,-0.97 6.377,-1.24Z" style="fill:#fff;"/><path d="M2585.807,1212.527l1.78,0.896c1.04,3.086 11.449,33.975 12.051,38.881c0.659,5.373 -7.875,9.827 -9.28,10.767c-15.048,10.077 -10.262,-5.409 -22.839,-44.122c7.333,-7.626 7.915,-8.106 18.289,-6.423Z" style="fill:#fff;fill-opacity:1;"/><path d="M574.16,1263.708c7.641,-2.956 7.544,-3.197 8.252,-3.192c32.618,0.211 -17.021,15.981 -77.549,48.713c-6.905,3.734 -11.401,-2.073 -5.69,-6.457c23.691,-18.185 68.722,-36.513 74.987,-39.063Z" style="fill:#fff;fill-opacity:0.99;"/><path d="M2192.319,1278.012c-7.557,0.012 -12.602,3.683 -10.36,-3.32c0.613,-1.914 6.916,-21.605 13.181,-21.388c0.037,0.001 46.282,6.14 42.499,13.179c-5.196,9.667 -41.583,11.356 -45.32,11.53Z" style="fill:#fff;fill-opacity:1;"/><path d="M2442.441,1275.57c-17.932,-8.606 -18.738,-7.586 -19.216,-9.222c-4.604,-15.784 36.738,6.028 39.59,7.533c17.953,9.472 56.659,28.846 55.882,34.327c-0.931,6.57 -5.63,4.317 -76.257,-32.638Z" style="fill:#fff;fill-opacity:0.99;"/><path d="M778.313,1263.885c7.598,-2.412 46.277,-17.104 51.081,-5.552c3.257,7.833 9.134,19.208 0.975,19.315c-22.362,0.293 -41.64,0.313 -52.055,-13.762Z" style="fill:#fff;fill-opacity:1;"/><path d="M426.693,1216.232c6.697,-7.16 20.863,-0.545 18.912,5.353c-2.205,6.665 -4.791,13.202 -6.948,19.883c-5.32,16.481 -0.92,29.377 -14.099,20.651c-15.13,-10.017 -6.66,-20.745 2.135,-45.888Z" style="fill:#fff;"/><path d="M665.915,1165.714c-52.582,2.196 120.921,-53.906 110.92,-33.323c-1.744,3.59 -31.796,-0.517 -110.92,33.323Z" style="fill:#fff;fill-opacity:0.99;"/><path d="M2351.235,1165.193c-52.067,-20.108 -51.803,-20.538 -106.368,-31.973c-5.845,-1.225 -4.946,-5.83 -2.135,-5.862c39.525,-0.449 156.411,43.878 108.503,37.835Z" style="fill:#fff;fill-opacity:0.97;"/><path d="M2623.953,1238.356c-10.309,8.4 -14.366,17.894 -18.488,5.303c-7.948,-24.273 -9.66,-29.532 -6.797,-30.68c22.642,-9.082 24.913,-0.076 27.087,19.877c0.05,0.46 -0.133,0.407 -1.801,5.499Z" style="fill:#fff;fill-opacity:1;"/><path d="M390.552,1238.063c-6.672,-9.691 -3.126,-10.454 -0.346,-21.977c3.345,-13.863 8.75,-6.91 22.722,-3.732c2.444,0.556 5.872,1.989 -4.539,30.997c-3.299,9.192 -17.68,-5.173 -17.837,-5.288Z" style="fill:#fff;"/><path d="M702.148,1198.232c-4.702,0.304 -5.55,2.161 -7.947,-1.761c-4.337,-7.094 69.635,-28.927 91.551,-30.461c7.519,-0.526 5.806,4.346 2.579,5.213c-43.709,11.735 -43.757,10.82 -86.183,27.009Z" style="fill:#fff;fill-opacity:0.97;"/><path d="M2228.065,1165.572c43.029,3.462 98.406,25.749 95.017,30.99c-5.407,8.363 -11.378,-6.68 -80.527,-22.753c-1.337,-0.311 -15.336,-3.565 -16.368,-5.161c-0.157,-0.242 0,0 1.877,-3.075Z" style="fill:#fff;fill-opacity:0.98;"/><path d="M2360.01,1337.564c-1.386,1.045 -15.773,13.232 -17.139,14.39l-2.771,-0.229c-18.24,-4.664 -32.082,-4.279 -19.409,-18.398c7.562,-8.425 16.371,-2.346 39.319,4.238Z" style="fill:#fff;fill-opacity:1;"/><path d="M701.772,1104.668c-9.009,6.619 -18.148,7.565 -74.789,30.368c-4.747,-7.845 10.306,-13.577 53.12,-29.875c14.882,-5.665 18.267,-1.918 21.669,-0.494Z" style="fill:#fff;fill-opacity:0.99;"/><path d="M491.404,1264.874c0.891,-23.855 1.307,-33.601 24.417,-27.221c1.142,0.315 17.878,4.936 12.448,8.012c-32.413,18.361 -33.598,18.587 -36.865,19.21Z" style="fill:#fff;fill-opacity:1;"/><path d="M2390.071,1296.921c11.988,1.227 11.307,2.902 22.293,8.198c59.173,28.527 62.579,32.311 57.903,35.039c-4.624,2.698 -71.261,-34.055 -78.052,-40.543l-2.143,-2.694Z" style="fill:#fff;fill-opacity:0.97;"/><path d="M2331.79,1103.722c4.735,1.807 76.974,29.368 55.694,30.188c-5.976,0.23 -4.379,-4.939 -69.992,-26.253c-3.908,-1.27 -3.142,-6.242 5.686,-5.449c0.697,0.063 0.638,0.112 8.611,1.514Z" style="fill:#fff;"/><path d="M659.426,1337.326c20.581,-7.189 23.485,-16.101 38.637,-0.45c6.302,6.51 -6.172,9.574 -7.113,9.805c-18.109,4.449 -20.769,5.833 -31.524,-9.356Z" style="fill:#fff;fill-opacity:0.99;"/><path d="M2496.019,1238.993c14.652,-3.095 16.463,-7.037 19.671,-0.827c2.184,4.229 7.652,23.486 6.908,24.75c-1.645,2.794 -3.229,2.695 -36.639,-17.329c-4.854,-2.909 9.125,-6.364 10.06,-6.594Z" style="fill:#fff;"/><path d="M2690.117,1288.551c-0.086,2.437 -0.768,21.621 -13.284,27.431c-4.354,2.021 -8.01,-28.033 -2.579,-32.906c12.824,-11.507 14.693,-7.603 15.084,-6.353c0.283,0.905 0.058,0.876 0.779,11.828Z" style="fill:#fff;"/><path d="M361.134,1213.249c0.799,-5.493 -3.022,-20.914 19.41,-12.59c6.85,2.542 0.496,30.995 -7.307,27.392c-9.537,-4.404 -10.713,-4.443 -12.103,-14.801Z" style="fill:#fff;"/><path d="M2557.143,1222.328c12.779,12.524 21.445,64.718 8.315,52.322c-1.209,-1.142 -14.47,-47.841 -13.239,-49.912c0.224,-0.377 0.365,-0.179 4.923,-2.411Z" style="fill:#fff;fill-opacity:1;"/><path d="M2645.064,1197.858c20.622,21.189 -8.784,38.107 -11.839,26.327c-4.147,-15.986 -8.941,-22.256 7.434,-25.2c2.386,-0.429 2.102,-0.537 4.406,-1.127Z" style="fill:#fff;"/><path d="M620.729,1300.094c-4.989,3.888 -15.455,12.045 -68.681,39.162c-6.401,3.261 -10.856,-3.506 -2.372,-7.579c64.943,-31.18 64.862,-32.191 71.053,-31.583Z" style="fill:#fff;fill-opacity:0.93;"/><path d="M452.319,1263.67c-0.934,2.427 -1.135,5.096 -2.07,7.523c-1.993,5.177 -9.306,3.845 -8.227,-5.02c4.834,-39.734 20.119,-50.644 20.654,-38.928c0.138,3.026 -1.056,2.502 -10.357,36.424Z" style="fill:#fff;"/><path d="M331.798,1277.335c15.297,10.879 8.988,14.447 7.33,33.189c-1.632,18.446 -34.387,-47.542 -7.33,-33.189Z" style="fill:#fff;"/><path d="M2278.741,1228.639c-44.672,-16.677 -103.045,-30.889 -55.807,-23.52c31.372,4.894 30.503,7.007 60.686,17.79c0.567,0.203 9.142,8.909 -4.879,5.73Z" style="fill:#fff;fill-opacity:0.96;"/><path d="M728.491,1225.298c66.427,-27.054 73.793,-22.582 70.57,-17.735c-1.309,1.968 -65.894,21.965 -66.105,21.834c-1.715,-1.068 -2.75,-3.031 -4.465,-4.099Z" style="fill:#fff;fill-opacity:0.96;"/><path d="M596.443,1363.872c-13.349,5.924 -11.287,-2.098 -10.831,-2.87c0.033,-0.056 55.288,-32.216 57.96,-32.111c10.672,0.417 -7.787,10.968 -8.795,11.544c-19.731,11.278 -19.335,11.363 -38.334,23.437Z" style="fill:#fff;fill-opacity:0.94;"/><path d="M2387.62,1337.658c41.718,22.935 43.488,25.198 40.709,28.01c-4.464,4.516 -57.564,-32.289 -57.704,-32.584c-3.403,-7.21 12.704,1.95 16.994,4.574Z" style="fill:#fff;fill-opacity:0.98;"/><path d="M2251.869,1255.402c-8.929,5.61 -56.168,-10.999 -56.357,-11.434c-1.832,-4.22 3.318,-10.796 56.357,11.434Z" style="fill:#fff;fill-opacity:0.93;"/><path d="M766.467,1255.102c14.317,-7.969 57.037,-18.576 55.718,-11.127c-0.133,0.752 -49.375,17.596 -55.718,11.127Z" style="fill:#fff;fill-opacity:0.91;"/><path d="M2340.324,1398.13c2.437,0.79 4.873,1.581 7.31,2.371c10.452,9.146 -2.089,7.748 -15.817,14.063c-1.221,0.562 -22.013,10.126 -16.651,2.187c4.238,-6.276 23.002,-17.349 25.158,-18.621Z" style="fill:#fff;fill-opacity:0.98;"/><path d="M677.213,1410.893c-9.566,-4.534 -12.667,-2.638 -12.007,-8.338c0.217,-1.876 3.836,-4.015 4.25,-4.26c7.67,-4.534 7.356,0.762 22.667,11.751c25.432,18.254 -13.813,1.32 -14.909,0.847Z" style="fill:#fff;"/><path d="M2412.622,1087.279c0.538,0.29 20.644,7.243 10.586,14.254c-1.693,1.18 -3.574,2.491 -24.227,-8.84c-0.374,-0.205 -6.679,-3.664 -1.036,-5.23c10.02,-2.779 12.75,-0.599 14.678,-0.184Z" style="fill:#fff;"/><path d="M604.744,1088.044c1.205,-0.367 14.737,-4.488 15.742,0.529c0.824,4.113 -21.301,13.767 -24.141,13.507c-17.886,-1.637 7.215,-13.478 8.399,-14.036Z" style="fill:#fff;"/><path d="M2660.244,1334.917c-3.622,-9.525 -4.035,-46.254 2.689,-40.78c1.23,1.002 2.635,24.659 2.039,33.241c-0.344,4.963 -0.454,5.004 -4.729,7.539Z" style="fill:#fff;"/><path d="M353.185,1310.745c-1.065,16.884 1.876,25.089 -4.63,19.478c-3.593,-3.099 -2.391,-25.526 -0.435,-36.317c4.716,-26.022 5.054,15.432 5.065,16.839Z" style="fill:#fff;"/><path d="M2365.247,1374.906c1.949,-0.229 8.661,-1.017 21.786,11.277c3.891,3.645 -2.132,7.418 -5.233,5.054c-9.513,-7.252 -10.016,-6.454 -16.553,-16.331Z" style="fill:#fff;fill-opacity:0.91;"/><path d="M650.544,1374.117c-12.599,12.759 -11.914,13.686 -17.52,15.861c-12.5,4.849 4.601,-19.457 17.52,-15.861Z" style="fill:#fff;"/><path d="M2360.01,1337.564l4.917,1.854c-7.501,9.027 -7.942,8.269 -16.538,16.071c-1.839,-1.179 -3.678,-2.357 -5.518,-3.536c1.366,-1.157 15.753,-13.345 17.139,-14.39Z" style="fill:#fff;fill-opacity:0.97;"/><path d="M2585.268,1205.713c-0.26,3.564 -0.567,3.44 0.539,6.815c-10.374,-1.683 -10.956,-1.203 -18.289,6.423c-2.113,-4.034 -1.693,-4.041 -4.638,-7.712c10.932,-4.098 10.81,-4.07 22.388,-5.526Z" style="fill:#fff;fill-opacity:0.99;"/><path d="M585.265,1088.094c-1.257,-0.005 -16.526,-0.061 -13.365,-8.26c1.133,-2.939 28.921,0.498 15.71,7.364c-0.743,0.386 -1.602,0.511 -2.345,0.896Z" style="fill:#fff;"/><path d="M2662.834,1198.27c17.514,4.454 -0.222,15.368 -2.859,12.587c-7.917,-8.349 1.898,-12.209 2.859,-12.587Z" style="fill:#fff;"/><path d="M2444.679,1081.794c-15.495,14.178 -20.527,-0.302 -17.732,-0.985c10.193,-2.488 12.687,-8.256 17.732,0.985Z" style="fill:#fff;"/><path d="M353.919,1204.933c-3.364,13.397 -15.389,-7.977 -5.446,-8.414c6.349,-0.279 5.531,2 5.446,8.414Z" style="fill:#fff;"/><path d="M329.679,1198.39c-8.166,-6.16 -13.028,-6.885 -8.295,-9.235c0.832,-0.413 9.433,2.216 10.239,2.463c3.883,1.187 9.236,10.336 -1.945,6.772Z" style="fill:#fff;"/><path d="M701.655,1355.447c-11.202,5.23 -11.027,5.494 -13.327,5.79c-0.496,0.064 -24.503,-2.686 -2.718,-5.631c12.646,-1.71 13.44,-3.395 16.045,-0.158Z" style="fill:#fff;fill-opacity:0.8;"/><path d="M2684.683,1198.479c-16.318,5.532 -4.537,-6.296 -4.458,-6.322c0.761,-0.254 8.323,-2.783 10.007,-0.658c3.17,4 -0.622,3.374 -5.549,6.98Z" style="fill:#fff;"/><path d="M307.337,1266.379c14.805,-6.584 6.142,12.176 3.052,9.711c-4.318,-3.444 -2.592,-4.242 -3.052,-9.711Z" style="fill:#fff;"/><path d="M2332.411,1358.421c-4.187,3.296 -4.417,4.403 -9.184,2.015c-6.924,-3.469 -6.978,-3.657 -7.163,-4.299c-0.365,-1.269 0.786,-3.975 16.347,2.284Z" style="fill:#fff;fill-opacity:0.71;"/><path d="M2704.044,1274.284c-3.825,2.562 -5.983,5.671 -6.168,0.983c-0.029,-0.732 -0.356,-9.059 3.903,-8.278c4.693,0.861 2.382,2.717 2.265,7.295Z" style="fill:#fff;"/><path d="M2345.522,1087.13c-0.724,2.197 -1.448,4.394 -2.172,6.591l-2.391,2.359c-1.303,-1.93 -2.605,-3.859 -3.908,-5.789c2.824,-1.053 5.648,-2.107 8.471,-3.16Z" style="fill:#fff;"/><path d="M1739.791,1593.958c-2.191,7.033 -0.661,8.671 -7.543,11.203c-1.04,0.383 -1.491,-2.539 -2.531,-2.156c0.817,-0.711 7.253,-6.31 10.074,-9.047Z" style="fill:#fff;fill-opacity:0.27;"/><path d="M2711.683,1258.792c3.822,-2.308 5.34,-5.171 6.578,-0.763c0.521,1.856 -9.44,15.108 -6.578,0.763Z" style="fill:#fff;"/><path d="M303.889,1264.655c-11.235,-5.354 -3.022,-8.014 -2.428,-7.749c3.643,1.623 1.947,2.533 2.428,7.749Z" style="fill:#fff;"/><path d="M2340.324,1398.13c1.699,-3.968 2.394,-6.497 4.878,-3.091c0,0 2.238,5.025 2.432,5.462c-2.437,-0.79 -4.873,-1.581 -7.31,-2.371Z" style="fill:#fff;fill-opacity:0.98;"/><path d="M2609.366,1502.233c0.035,1.194 2.302,1.523 2.337,2.716c0.156,5.324 -2.584,2.834 -7.766,2.453c2.556,-2.813 2.415,-2.684 5.43,-5.17Z" style="fill:#fff;fill-opacity:0.98;"/><path d="M2585.268,1205.713l2.752,-0.018c-0.103,7.235 -0.462,7.11 -0.433,7.728l-1.78,-0.896c-1.106,-3.375 -0.799,-3.251 -0.539,-6.815Z" style="fill:#fff;fill-opacity:0.99;"/><path d="M2403.9,1539.157l2.764,3.31c-4.374,1.655 -4.128,1.937 -4.374,1.655c0,0 1.481,-4.568 1.61,-4.966Z" style="fill:#fff;"/><path d="M2390.071,1296.921l2.143,2.694c-4.484,-2.418 -4.835,-2.165 -4.828,-2.603c0.014,-0.895 2.672,0.805 2.685,-0.091Z" style="fill:#fff;fill-opacity:0.36;"/><path d="M950.171,1367.034c-1.132,0.677 -2.264,1.355 -3.395,2.032c0.174,-0.485 -2.188,-1.653 0.725,-2.025c1.427,-0.182 1.194,0.181 2.67,-0.007Z" style="fill:#fff;fill-opacity:1;"/><path d="M2358.53,1083.956c4.193,-0.714 4.018,-0.651 8.08,-0.094c-2.693,0.031 -5.386,0.063 -8.08,0.094Z" style="fill:#fff;"/></g></svg>